<?xml version="1.0" encoding="UTF-8" standalone="no"?>
<!-- Created with Inkscape (http://www.inkscape.org/) -->

<svg
   width="16.0px"
   height="16.0px"
   viewBox="0 0 16.0 16.0"
   version="1.1"
   id="SVGRoot"
   xmlns="http://www.w3.org/2000/svg"
   xmlns:svg="http://www.w3.org/2000/svg">
  <defs
     id="defs706" />
  <g
     id="layer1">
    <text
       xml:space="preserve"
       style="fill:#000000"
       x="0.085391283"
       y="13.850467"
       id="text946"><tspan
         id="tspan944"
         x="0.085391283"
         y="13.850467" /></text>
    <circle
       style="fill:#d4aa00;stroke-width:1.00306"
       id="path1470"
       cx="8"
       cy="8"
       r="8" />
    <rect
       style="fill:#000000;stroke-width:0.871917"
       id="rect1638"
       width="2.3"
       height="8"
       x="6.8333302"
       y="2"
       rx="0.1" />
    <path
       style="fill:#000000"
       id="path1710"
       d="m 9.9918146,10.111869 c 0.051638,0.0889 -1.1501647,2.183037 -1.2013359,2.272207 -0.051171,0.08917 -1.2528811,2.183359 -1.3556904,2.183629 -0.1028092,2.69e-4 -1.3154829,-2.08759 -1.3671209,-2.176491 -0.051638,-0.0889 -1.2644042,-2.176707 -1.213233,-2.265877 0.051171,-0.08917 2.4656476,-0.09545 2.5684568,-0.09572 0.1028092,-2.69e-4 2.5172854,-0.0067 2.5689234,0.08225 z"
       transform="matrix(0.9732564,0.0023516,-0.00219352,1.1234734,0.7976008,-1.3839123)" />
    <text
       xml:space="preserve"
       style="fill:#000000"
       x="9.2994671"
       y="8.1650095"
       id="text1714"><tspan
         id="tspan1712"
         x="9.2994671"
         y="8.1650095" /></text>
    <text
       xml:space="preserve"
       style="line-height:0.1;fill:#000000"
       x="1.1807622"
       y="13.104145"
       id="text1718"><tspan
         id="tspan1716"
         x="1.1807622"
         y="13.104145" /></text>
    <text
       xml:space="preserve"
       style="font-size:5.33333333px;fill:#000000"
       x="-0.61118692"
       y="22.253752"
       id="text1722"><tspan
         id="tspan1720"></tspan></text>
    <text
       xml:space="preserve"
       style="font-size:5.33333px;fill:#000000"
       x="1.7571623"
       y="11.601637"
       id="text1726"><tspan
         id="tspan1724"></tspan></text>
    <text
       xml:space="preserve"
       style="font-size:5.33333px;fill:#000000"
       x="3.5034106"
       y="9.0804911"
       id="text1730"><tspan
         id="tspan1728"></tspan></text>
  </g>
</svg>
